<svg id="Layer_4" xmlns="http://www.w3.org/2000/svg" viewBox="0 0 512 160"><style>.st0{fill:#FCB959;} .st1{fill:#237DA3;} .st2{fill:none;} .st3{fill:#EF325F;} .st4{fill:#73D175;} .st5{fill:#FFFFFF;} .st6{fill:#AE5ADF;} .st7{fill:#FDEB20;} .st8{fill:#60AFF2;} .st9{fill:#FCE959;}</style><path class="st0" d="M64.2 150.6c-3.6 0-7.3-2.2-9.1-5.2l-.1-.2-4.6-9.2v5.6c0 5-4.1 9-9.1 9H16c-4.9 0-9-4.1-9-9V47c0-5 4.1-9.1 9-9.1h25.3c5 0 9.1 4.1 9.1 9.1v3.8l4-7.6.1-.1c1.8-3.2 5.5-5.2 9.4-5.2h31.3c3.1 0 5.8 1.5 7.2 4 1.4 2.5 1.4 5.6-.1 8.2l-.1.2-26 41.7 28.1 46.1c1.7 2.5 1.9 5.6.6 8.2-1.4 2.7-4.2 4.3-7.5 4.3H64.2z"/><path class="st1" d="M95.3 44.9c1.1 0 1.6.7 1 1.7L67.9 91.9l30.5 49.9c.7 1 .1 1.7-1 1.7H64.2c-1 0-2.4-.7-3-1.7L43.5 106v35.5c0 1-.9 2-2.1 2H16c-1 0-2-1-2-2V47c0-1.1 1-2.1 2-2.1h25.3c1.3 0 2.1 1 2.1 2.1v32l17.2-32.5c.6-1 2-1.7 3.3-1.7h31.4m0-13.9H63.9c-4.3 0-8.5 1.6-11.7 4.3-2.9-2.7-6.7-4.3-10.9-4.3H16c-4.3 0-8.5 1.8-11.5 5-2.9 3-4.5 7-4.5 11.1v94.5c0 8.7 7.3 16 16 16h25.3c4.3 0 8.3-1.7 11.2-4.5 3.2 2.8 7.4 4.5 11.7 4.5h33.2c5.9 0 11.1-3.1 13.7-8.1 2.5-4.8 2.1-10.5-.9-15.1L84.4 92l23.7-38 .1-.2.1-.2c2.8-4.8 2.8-10.5.1-15.2-2.6-4.7-7.6-7.5-13.1-7.5z"/><path class="st0" d="M176.5 152.7c-26.4 0-44.8-19.9-44.8-48.5 0-28.5 18.4-48.3 44.8-48.3 3.6 0 7.1.5 10.4 1.4V41.9c0-4.9 4.2-9 9.1-9h25.2c5 0 9.1 4.1 9.1 9v99.5c0 5-4.1 9.1-9.1 9.1H205c-1.4 0-4.5-.4-7-3.5-6.1 3.7-13.7 5.7-21.5 5.7zm6.1-58.2c-5.7 0-6.2 7.3-6.2 9.6 0 4.7 1.6 10.2 6.2 10.2 1.8 0 3.4-.9 4.3-2.4v-15c-.9-1.4-2.5-2.4-4.3-2.4z"/><path class="st1" d="M221.2 39.9c1.1 0 2.1 1 2.1 2v99.5c0 1.1-1 2.1-2.1 2.1H205c-1 0-1.7-.9-2.3-2.1l-2.1-5.1c-5.4 5.7-14.6 9.4-24.2 9.4-22.6 0-37.8-16.6-37.8-41.5 0-24.7 15.2-41.3 37.8-41.3 6.7 0 13.2 2 17.4 5.4V41.9c0-1 1-2 2.1-2h25.3m-38.6 81.4c5 0 9.6-3.1 11.3-7.9v-18c-1.7-4.7-6.3-7.9-11.3-7.9-7.9 0-13.2 6.6-13.2 16.6.1 10.3 5.4 17.2 13.2 17.2m38.6-95.4H196c-4.2 0-8.1 1.6-11.2 4.5-3.2 3-5 7.2-5 11.5V49c-1.1-.1-2.3-.1-3.4-.1-14.9 0-28.3 5.7-37.7 15.9-9.2 10.1-14.1 23.7-14.1 39.4 0 32.7 21.3 55.5 51.8 55.5 7.2 0 14.3-1.5 20.6-4.3 2.4 1.4 5.1 2.2 8 2.2h16.2c8.9 0 16.1-7.2 16.1-16.1V41.9c0-4.3-1.8-8.5-5-11.5-2.9-2.9-6.9-4.5-11.1-4.5z"/><path class="st0" d="M316.8 150.6c-5 0-9.1-4.1-9.1-9v-.3l-.9 2.6c-1.6 4.3-6.4 6.7-10.1 6.7H281c-3.7 0-8.5-2.3-10.1-6.7l-.9-2.6v.3c0 4.9-4.2 9-9.1 9h-26.5c-5 0-9-4-9-9V47c0-5 4-9.1 9-9.1h29.9c4.4 0 8.9 2.7 11 6.5l.3.5 13.3 36.9 13.3-36.9.3-.5c2.1-3.8 6.6-6.5 11-6.5h29.9c5 0 9 4.1 9 9.1v94.5c0 5-4 9-9 9h-26.6z"/><path class="st1" d="M343.2 44.9c1.1 0 2 1 2 2.1v94.5c0 1-.9 2-2 2h-26.5c-1.1 0-2.1-1-2.1-2v-42l-14.4 41.9c-.4 1.1-2.3 2.1-3.6 2.1h-15.7c-1.3 0-3.1-1-3.6-2.1l-14.4-41.9v42c0 1-1 2-2.1 2h-26.5c-1.1 0-2-1-2-2V47c0-1.1.9-2.1 2-2.1h29.9c1.9 0 4 1.3 4.9 2.9l19.7 54.6 19.7-54.6c.9-1.6 3-2.9 4.9-2.9h29.8m0-14h-29.9c-6.9 0-13.8 4.1-17.2 10.2l-.5.9-.4 1-6.6 18.2-6.4-18.2-.4-1-.5-.9c-3.3-6.1-10.2-10.2-17.2-10.2h-29.9c-8.8 0-16 7.2-16 16.1v94.5c0 8.8 7.2 16 16 16h26.5c3.6 0 7-1.2 9.8-3.3 3.2 2.2 7 3.3 10.4 3.3h15.7c3.4 0 7.1-1.1 10.4-3.3 2.8 2.2 6.2 3.3 9.8 3.3h26.5c8.8 0 16-7.2 16-16V47c-.1-8.9-7.3-16.1-16.1-16.1z"/><g><path class="st0" d="M439.5 150.6c-4.2 0-7.8-2.5-9.1-6.4l-1.9-4.1-1.9 4.1c-1.3 3.8-4.9 6.4-9.1 6.4h-27.7c-3 0-5.7-1.5-7.2-4-1.5-2.4-1.6-5.5-.3-8.2l17.5-35-18.4-33.5-.2-.5c-1-2.7-.7-5.6.9-7.9 1.6-2.2 4.2-3.6 6.9-3.6h27c2.1 0 6 .7 8.7 5.4l.1.2 3.7 7.5 3.7-7.5.1-.2c2.7-4.7 6.6-5.4 8.7-5.4h27c2.8 0 5.4 1.3 6.9 3.6 1.6 2.3 1.9 5.2.9 7.9l-.2.5-18.4 33.5 17.5 35c1.3 2.7 1.2 5.7-.3 8.2-1.5 2.5-4.3 4-7.2 4h-27.7z"/><path class="st1" d="M467.9 64.9c1 0 1.7.9 1.3 2l-19.9 36.3 19.2 38.3c.6 1.1-.3 2-1.3 2h-27.7c-1.3 0-2.3-.7-2.6-1.9l-8.4-18.4-8.4 18.4c-.3 1.1-1.3 1.9-2.6 1.9h-27.7c-1 0-1.9-.9-1.3-2l19.2-38.3-19.9-36.3c-.4-1.1.3-2 1.3-2h27c1.3 0 2 .9 2.6 1.9l9.9 20.2 9.9-20.2c.6-1 1.3-1.9 2.6-1.9h26.8m0-14h-27c-2.5 0-8 .6-12.4 5.7-4.4-5.1-10-5.7-12.4-5.7h-27c-5.1 0-9.8 2.5-12.7 6.6-2.9 4.1-3.5 9.5-1.7 14.3l.3.9.5.9 16.4 29.9-15.9 31.8c-2.4 4.8-2.2 10.4.6 15 2.8 4.5 7.8 7.3 13.2 7.3h27.7c4.2 0 8.1-1.5 11-4.1 3 2.6 6.8 4.1 11 4.1h27.7c5.4 0 10.4-2.8 13.2-7.3 2.8-4.5 3-10.1.6-15l-15.9-31.8 16.4-29.9.5-.9.3-.9c1.8-4.8 1.2-10.2-1.7-14.3-2.9-4.1-7.6-6.6-12.7-6.6z"/></g><g><path class="st0" d="M104.8 150.6c-5 0-9.1-4.1-9.1-9.1V66.9c0-4.9 4.2-9 9.1-9h3.4l-.1-1.4c-8.3-4.8-13.3-12.6-13.3-21.4 0-14.3 13.8-25.9 30.8-25.9s30.8 11.6 30.8 25.9c0 11.4-8.8 21.1-20.9 24.5 2.3 1.7 3.8 4.3 3.8 7.2v74.5c0 5-4.1 9.1-9.1 9.1h-25.4z"/><path class="st1" d="M125.5 16.3c13.1 0 23.8 8.5 23.8 18.9 0 10.4-10.6 18.9-23.8 18.9-.9 0-1.7 0-2.6-.1l-7.4 8.6-.7-10.6c-7.7-3.1-13-9.5-13-16.8 0-10.5 10.6-18.9 23.7-18.9m4.5 48.6c1.1 0 2.1 1 2.1 2v74.5c0 1.1-1 2.1-2.1 2.1h-25.2c-1.1 0-2.1-1-2.1-2.1V66.9c0-1 1-2 2.1-2H130m-4.5-62.6c-9.5 0-18.6 3-25.5 8.6-7.8 6.2-12.3 15-12.3 24.3 0 7 2.6 13.7 7.1 19.2-.4.3-.8.7-1.2 1-3.2 3-5 7.2-5 11.5v74.5c0 8.9 7.2 16.1 16.1 16.1H130c8.9 0 16.1-7.2 16.1-16.1V66.9c0-1.3-.2-2.6-.5-3.9 1.9-1 3.7-2.2 5.4-3.6 7.8-6.2 12.3-15 12.3-24.3S158.8 17 151 10.8c-6.9-5.5-16-8.5-25.5-8.5z"/></g><g><path class="st0" d="M355 150.7c-5 0-9.1-4.1-9.1-9.1V67.1c0-4.9 4.2-9 9.1-9h2.1C344.3 55 334.8 45 334.8 33.2c0-14.3 13.8-25.9 30.8-25.9s30.8 11.6 30.8 25.9c0 8.7-5 16.6-13.3 21.4l-.3 3.9c3.8 1.1 6.7 4.6 6.7 8.6v74.5c0 5-4.1 9.1-9.1 9.1H355z"/><path class="st1" d="M365.5 14.3c13.1 0 23.8 8.5 23.8 18.9 0 7.4-5.3 13.7-13 16.8l-.7 10.5-7.4-8.6c-.9.1-1.7.1-2.6.1-13.1 0-23.8-8.5-23.8-18.9 0-10.4 10.6-18.8 23.7-18.8m14.7 50.8c1.1 0 2.1 1 2.1 2v74.5c0 1.1-1 2.1-2.1 2.1H355c-1.1 0-2.1-1-2.1-2.1V67.1c0-1 1-2 2.1-2h25.2M365.5.3c-9.5 0-18.6 3-25.5 8.6-7.8 6.2-12.3 15-12.3 24.3s4.5 18.1 12.3 24.3c.5.4.9.7 1.4 1.1-1.6 2.5-2.5 5.5-2.5 8.5v74.5c0 8.9 7.2 16.1 16.1 16.1h25.2c8.9 0 16.1-7.2 16.1-16.1V67.1c0-3.9-1.5-7.7-4.1-10.6 6.9-6.1 11.1-14.4 11.1-23.3 0-9.3-4.5-18.1-12.3-24.3-6.9-5.6-16-8.6-25.5-8.6z"/></g><g><path class="st2" d="M182.5 95.5c-4.8 0-5.1 6.6-5.1 8.6 0 .9.1 9.2 5.1 9.2 1.3 0 3.2-.7 3.2-1.7V97.2c0-1-1.9-1.7-3.2-1.7zM77.3 92l17.3 28.4V66.9c0-1.6.4-3.2 1.2-4.5L77.3 92zM106.8 57c-1.9-1-3.6-2.5-5.1-4l-5.1 8.2c1.9-2.6 4.9-4.3 8.3-4.3h1.9zM390.7 88.5v31.3l8.2-16.4z"/><path class="st3" d="M94.9 143c-.1 0-.2-.8-.2-1.6v-5.7L67.9 91.9l28.3-45.3c.1-.2.2-.4.2-.5-.2-.4-.3-.7-.5-1-.1-.1-.4-.1-.6-.1H63.9c-1.3 0-2.6.7-3.2 1.7l-17 32.4V47c0-1.1-1-2-2.3-2H16c-1 0-1.4.9-1.4 2v94.5c0 1 .4 1.4 1.4 1.4h25.3c1.3 0 2.3-.4 2.3-1.4V106l17.6 35.5c.6 1 1.9 1.4 2.9 1.4h30.8z"/><path class="st4" d="M221.2 143c1.1 0 2.4-.4 2.4-1.6V41.9c0-1-1.3-1.9-2.4-1.9H196c-1.1 0-2.4.9-2.4 1.9v26.5c-4-3.4-10.3-5.4-17.1-5.4-18.5 0-31.9 11.2-35.9 28.9v25c4 17.8 17.5 28.9 36.1 28.9 9.6 0 18.6-3.7 24-9.4l2.1 4.9c.6 1.3 1.2 1.9 2.2 1.9h16.2zm-27.5-29.6c-1 4.7-6.2 7.9-11.2 7.9-7.9 0-13.1-6.9-13.1-17.2 0-10 5.2-16.6 13.1-16.6 5 0 10.2 3.1 11.2 7.9v18z"/><path class="st5" d="M182.5 87.5c-7.9 0-13.1 6.6-13.1 16.6 0 10.3 5.2 17.2 13.1 17.2 5 0 10.2-3.1 11.2-7.9v-18c-1-4.7-6.2-7.9-11.2-7.9zm3.2 24.1c0 1-1.9 1.7-3.2 1.7-5 0-5.1-8.2-5.1-9.2 0-2 .3-8.6 5.1-8.6 1.3 0 3.2.7 3.2 1.7v14.4z"/><path class="st6" d="M343.2 143c.8 0 1.3-.2 1.6-.7 0-.3-.2-.4-.2-.7V67.1c0-.8 1-1.7 1-2.5V53.8c-1-.3-1.2-.6-1.7-1-2.8-2.3-5.4-4.8-7-7.8h-23.6c-1.9 0-4 1.2-4.9 2.8l-19.7 54.6L269 47.8c-.9-1.6-3-2.8-4.9-2.8h-29.9c-1.1 0-1.6.9-1.6 2v94.5c0 1 .4 1.4 1.6 1.4h26.5c1.1 0 2-.4 2-1.4v-42l14.5 41.6c.4 1.1 2.4 1.9 3.7 1.9h15.7c1.3 0 3.2-.7 3.6-1.9l14.5-41.6v42c0 1 .9 1.4 2.1 1.4h26.4z"/><path class="st7" d="M449.3 103.2L469.2 67c.4-1.1-.3-2-1.3-2h-27c-1.3 0-2 .8-2.6 1.8L428.4 87l-9.9-20.1c-.6-1-1.3-1.8-2.6-1.8H390c.2 0 .6 1.3.6 2.1v4.7l17.2 31.5-17.2 34.4v3.9c0 .7-.4 1.4-.5 1.4h27.3c1.3 0 2.3-.4 2.6-1.6l8.4-18.3 8.4 18.2c.3 1.1 1.3 1.6 2.6 1.6h27.7c1 0 1.9-.6 1.3-1.7l-19.1-38.1z"/><path class="st5" d="M476.5 70.3l.2-.5c1.1-3 .7-6.2-1-8.7-1.7-2.5-4.6-4-7.8-4h-27c-2.3 0-6.6.7-9.5 5.8l-.1.2-.1.2-2.7 5.5-2.7-5.5-.1-.2-.1-.2c-2.9-5.1-7.2-5.8-9.5-5.8h-27c-1.6 0-3.1.4-4.5 1.1-.2-.1-.5-.2-.7-.3l.2-2.6c8.4-5 13.4-13 13.4-22 0-7.4-3.6-14.6-10-19.6-5.9-4.7-13.6-7.3-21.8-7.3s-15.9 2.6-21.8 7.3c-6.3 5-10 12.2-10 19.7 0 1.3.1 2.8.3 3.8h-20.8c-4.7 0-9.6 2.8-11.9 7l-.3.5-.2.6-12.2 33.8L276.5 45l-.2-.6-.3-.4c-2.3-4.1-7.1-7-11.9-7h-29.9c-1.4 0-2.7.3-3.9.8-1.6-3.4-5.2-5.8-9.2-5.8h-25.2c-5.5 0-10.4 4.5-10.4 9.9V56c-3-.7-6.1-1.1-9.3-1.1-13.2 0-24.7 5-32.9 14-1.1 1.2-1.7 2.5-2.7 3.8v-5.8c0-2.6-1.3-5-3-6.8 3.6-1.2 6.9-3 9.8-5.4 6.3-5 9.9-12.2 9.9-19.6s-3.7-14.6-10-19.6c-5.9-4.7-13.6-7.3-21.8-7.3-8.1 0-15.9 2.6-21.8 7.3-6.3 5-10 12.2-10 19.7 0 .6 0 .8.1 1.8H63.9c-4.2 0-8.2 2.2-10.2 5.7l-.1.1-.1.1-2.1 4c-.1-5.5-4.6-9.9-10.1-9.9H16c-5.4 0-9.4 4.5-9.4 10v94.5c0 5.4 3.9 9.4 9.4 9.4h25.3c5.6 0 10.3-3.9 10.3-9.4v-1.3l2.5 4.9v-.1h.1c2 4 6 6 10 6h33.2c1.3 0 2.6-.3 3.7-.7 1.2.5 2.4.7 3.7.7H130c5.6 0 10.7-4 10.7-9.6v-5.5c1 1.3 1.7 2.6 2.8 3.8 8.2 9 19.9 14 33.1 14 7.7 0 15.1-2.2 21.3-5.7 2.6 2.8 5.7 2.9 7.2 2.9h16.2c2.5 0 4.8-.9 6.5-2.4 1.7 1.5 4 2.4 6.5 2.4h26.5c4.2 0 8-2.7 9.5-6.5 2.1 4.2 6.9 6.5 10.7 6.5h15.7c3.8 0 8.6-2.3 10.7-6.5 1.5 3.7 5.2 6.5 9.5 6.5h26.5c2.2 0 4.2-.3 5.8-1.4 1.7 1.3 3.8 2.4 6 2.4h25.2c1.8 0 3.5-.9 4.9-1.7 1.4.7 2.9.7 4.5.7h27.7c4.7 0 8.6-2.5 10.1-6.7l1-1.9 1 1.9c1.5 4.2 5.4 6.8 10.1 6.8h27.7c3.3 0 6.4-1.4 8.1-4.2 1.7-2.7 1.8-6 .3-9l-17.3-34.5 17.9-32.6.1-.4zm-9.3 72.7h-27.7c-1.3 0-2.3-.4-2.6-1.6l-8.4-18.3-8.4 18.2c-.3 1.1-1.3 1.6-2.6 1.6h-27.3c.1 0 .5-.7.5-1.4v-3.9l17.2-34.4-17.2-31.5V67c0-.7-.4-2.1-.6-2.1H416c1.3 0 2 .8 2.6 1.8l9.9 20.1 9.9-20.1c.6-1 1.3-1.8 2.6-1.8h27c1 0 1.7.8 1.3 2l-19.9 36.3 19.2 38c.5 1.2-.4 1.8-1.4 1.8zm-152.5-1.4v-42l-14.5 41.6c-.4 1.1-2.3 1.9-3.6 1.9h-15.7c-1.3 0-3.2-.7-3.7-1.9l-14.5-41.6v42c0 1-.8 1.4-2 1.4h-26.5c-1.1 0-1.6-.4-1.6-1.4V47c0-1.1.4-2 1.6-2h29.9c1.9 0 4 1.2 4.9 2.8l19.7 54.6 19.7-54.6c.9-1.6 3-2.8 4.9-2.8H337c1.7 3 4.2 5.6 7 7.8.5.4.7.7 1.7 1v10.8c0 .8-1 1.6-1 2.5v74.5c0 .3.1.4.2.7-.3.6-.9.7-1.6.7h-26.5c-1.2 0-2.1-.4-2.1-1.4zm27.1-108.4c0-10.4 10.6-18.9 23.8-18.9 13.1 0 23.8 8.5 23.8 18.9 0 7.4-5.3 13.7-13 16.8l-.7 10.5-7.4-8.6c-.9.1-1.7.1-2.6.1-13.3 0-23.9-8.4-23.9-18.8zm48.9 55.3l8.2 15-8.2 16.4V88.5zm-38 53.1V67.1c0-1 1.2-2.1 2.4-2.1h25.2c1.1 0 2.5 1.1 2.5 2.1v74.5c0 1.1-1.3 2.4-2.5 2.4H355c-1.1 0-2.3-1.3-2.3-2.4zm-149.9-.5l-2.1-5c-5.4 5.7-14.3 9.5-23.9 9.5-18.5 0-32.1-11.1-36.1-28.9v-25c4-17.7 17.4-28.9 35.9-28.9 6.7 0 13.1 2 17.1 5.4V41.9c0-1 1.3-1.9 2.4-1.9h25.2c1.1 0 2.4.9 2.4 1.9v99.5c0 1.1-1.3 1.6-2.4 1.6h-16.2c-1 0-1.7-.6-2.3-1.9zM130 143h-25.2c-1.1 0-2.2-.4-2.2-1.6V66.9c0-1 1-1.9 2.2-1.9H130c1.1 0 2.7.9 2.7 1.9v74.5c0 1.2-1.6 1.6-2.7 1.6zm-68.7-1.4l-17.6-35.5v35.5c0 1-1 1.4-2.3 1.4H16c-1 0-1.4-.4-1.4-1.4V47c0-1.1.4-2 1.4-2h25.3c1.3 0 2.3.9 2.3 2v32l17.1-32.4c.6-1 1.9-1.7 3.2-1.7h31.3c.3 0 .5 0 .7.1.2.4.3.7.5 1.1 0 .2-.1.3-.2.5L67.9 92l26.7 43.8v5.7c0 .7.1 1.6.2 1.6H64.2c-1-.1-2.3-.5-2.9-1.5zm88-106.4c0 10.4-10.6 18.9-23.8 18.9-.9 0-1.7 0-2.6-.1l-7.4 8.6-.7-10.6c-7.7-3.1-13-9.5-13-16.8 0-10.4 10.6-18.9 23.8-18.9 13.1 0 23.7 8.4 23.7 18.9zm-54.6 85.2L77.3 92l18.5-29.6c-.7 1.4-1.2 2.9-1.2 4.5v53.5zm1.9-59.2l5.1-8.2c1.5 1.4 3.2 2.9 5.1 3.9h-2c-3.3.1-6.4 1.8-8.2 4.3z"/><path class="st8" d="M101.8 35.2c0 7.4 5.3 13.7 13 16.8l.7 10.5 7.4-8.6c.9.1 1.7.1 2.6.1 13.1 0 23.8-8.5 23.8-18.9s-10.6-18.9-23.8-18.9c-13.1.1-23.7 8.5-23.7 19zM132.7 66.9c0-1-1.5-1.9-2.7-1.9h-25.2c-1.1 0-2.2.9-2.2 1.9v74.5c0 1.1 1 1.6 2.2 1.6H130c1.1 0 2.7-.4 2.7-1.6V66.9z"/><path class="st0" d="M382.7 141.6V67.1c0-1-1.3-2.1-2.5-2.1H355c-1.1 0-2.4 1.1-2.4 2.1v74.5c0 1.1 1.2 2.4 2.4 2.4h25.2c1.2 0 2.5-1.3 2.5-2.4zM365.5 52c.9 0 1.7 0 2.6-.1l7.4 8.6.7-10.5c7.7-3.1 13-9.5 13-16.8 0-10.4-10.6-18.9-23.8-18.9-13.1 0-23.8 8.5-23.8 18.9.2 10.4 10.8 18.8 23.9 18.8z"/></g><g><path class="st3" d="M98.4 141.9c.7 1 .1 1.7-1 1.7H64.2c-1 0-2.4-.7-3-1.7l-17.7-35.8v35.5c0 1-.9 2-2.1 2H16c-1 0-2-1-2-2V47c0-1.1 1-2.1 2-2.1h25.3c1.3 0 2.1 1 2.1 2.1v32l17.2-32.5c.6-1 2-1.7 3.3-1.7h31.3c1.1 0 1.6.7 1 1.7L67.9 91.9l30.5 50z"/><path class="st4" d="M221.2 39.9c1.1 0 2.1 1 2.1 2v99.5c0 1.1-1 2.1-2.1 2.1H205c-1 0-1.7-.9-2.3-2.1l-2.1-5.1c-5.4 5.7-14.6 9.4-24.2 9.4-22.6 0-37.8-16.6-37.8-41.5 0-24.7 15.2-41.3 37.8-41.3 6.7 0 13.2 2 17.4 5.4V41.9c0-1 1-2 2.1-2h25.3zm-27.3 55.5c-1.7-4.7-6.3-7.9-11.3-7.9-7.9 0-13.2 6.6-13.2 16.6 0 10.3 5.3 17.2 13.2 17.2 5 0 9.6-3.1 11.3-7.9v-18z"/><path class="st6" d="M343.2 44.9c1.1 0 2 1 2 2.1v94.5c0 1-.9 2-2 2h-26.5c-1.1 0-2.1-1-2.1-2v-42l-14.4 41.9c-.4 1.1-2.3 2.1-3.6 2.1h-15.7c-1.3 0-3.1-1-3.6-2.1l-14.4-41.9v42c0 1-1 2-2.1 2h-26.5c-1.1 0-2-1-2-2V47c0-1.1.9-2.1 2-2.1h29.9c1.9 0 4 1.3 4.9 2.9l19.7 54.6 19.7-54.6c.9-1.6 3-2.9 4.9-2.9h29.8z"/><path class="st9" d="M467.9 64.9c1 0 1.7.9 1.3 2l-19.9 36.3 19.2 38.3c.6 1.1-.3 2-1.3 2h-27.7c-1.3 0-2.3-.7-2.6-1.9l-8.4-18.4-8.4 18.4c-.3 1.1-1.3 1.9-2.6 1.9h-27.7c-1 0-1.9-.9-1.3-2l19.2-38.3-19.9-36.3c-.4-1.1.3-2 1.3-2h27c1.3 0 2 .9 2.6 1.9l9.9 20.2 9.9-20.2c.6-1 1.3-1.9 2.6-1.9h26.8z"/><g><path class="st8" d="M130 64.9h-25.2c-1.1 0-2.1 1-2.1 2v74.5c0 1.1 1 2.1 2.1 2.1H130c1.1 0 2.1-1 2.1-2.1V66.9c.1-1-1-2-2.1-2zm-4.5-48.6c-13.1 0-23.8 8.5-23.8 18.9 0 7.4 5.3 13.7 13 16.8l.7 10.5 7.4-8.6c.9.1 1.7.1 2.6.1 13.1 0 23.8-8.5 23.8-18.9s-10.5-18.8-23.7-18.8z"/></g><g><path class="st0" d="M380.2 65.1H355c-1.1 0-2.1 1-2.1 2v74.5c0 1.1 1 2.1 2.1 2.1h25.2c1.1 0 2.1-1 2.1-2.1V67.1c.1-1-.9-2-2.1-2zm-14.7-50.8c-13.1 0-23.8 8.5-23.8 18.9S352.4 52 365.5 52c.9 0 1.7 0 2.6-.1l7.4 8.6.7-10.5c7.7-3.1 13-9.5 13-16.8.1-10.5-10.5-18.9-23.7-18.9z"/></g></g><g><path class="st5" d="M119.5 33c1.2 0 2.1 1 2.1 2.2 0 1.2-.9 2.2-2.1 2.2s-2.1-1-2.1-2.2c0-1.2.9-2.2 2.1-2.2zM126.5 33c1.2 0 2.1 1 2.1 2.2 0 1.2-.9 2.2-2.1 2.2s-2.1-1-2.1-2.2c0-1.2.9-2.2 2.1-2.2zM133.4 33c1.2 0 2.1 1 2.1 2.2 0 1.2-.9 2.2-2.1 2.2s-2.1-1-2.1-2.2c0-1.2.9-2.2 2.1-2.2z"/></g><g><path class="st5" d="M358.5 31c1.2 0 2.1 1 2.1 2.2 0 1.2-.9 2.2-2.1 2.2s-2.1-1-2.1-2.2c0-1.2.9-2.2 2.1-2.2zM365.5 31c1.2 0 2.1 1 2.1 2.2 0 1.2-.9 2.2-2.1 2.2s-2.1-1-2.1-2.2c0-1.2.9-2.2 2.1-2.2zM372.4 31c1.2 0 2.1 1 2.1 2.2 0 1.2-.9 2.2-2.1 2.2s-2.1-1-2.1-2.2c0-1.2.9-2.2 2.1-2.2z"/></g><path class="st5" d="M104.4 48.5l5.4 11.9-21.4 2.5z"/><g><path class="st1" d="M490.6 44.9h-3V33.1h-3.9v-2.5h10.8v2.5h-3.9v11.8zM502.7 44.9l-3.4-11.2h-.1c.1 2.3.2 3.8.2 4.6v6.6h-2.7V30.6h4.1l3.4 10.9h.1l3.6-10.9h4.1v14.3h-2.8v-6.8V37s.1-1.5.1-3.3h-.1l-3.7 11.2h-2.8z"/></g></svg>