<?xml version="1.0" encoding="utf-8"?>
<!-- Generator: Adobe Illustrator 19.1.0, SVG Export Plug-In . SVG Version: 6.00 Build 0)  -->
<svg version="1.1" id="Layer_4" xmlns="http://www.w3.org/2000/svg" xmlns:xlink="http://www.w3.org/1999/xlink" x="0px" y="0px"
	 viewBox="0 0 512 160" style="enable-background:new 0 0 512 160;" xml:space="preserve">
<style type="text/css">
	.st0{fill:#FCB959;}
	.st1{fill:#237DA3;}
	.st2{fill:none;}
	.st3{fill:#EF325F;}
	.st4{fill:#73D175;}
	.st5{fill:#FFFFFF;}
	.st6{fill:#AE5ADF;}
	.st7{fill:#FDEB20;}
	.st8{fill:#60AFF2;}
	.st9{fill:#FCE959;}
</style>
<g>
	<g>
		<g>
			<g>
				<g>
					<path class="st0" d="M64.2,150.6c-3.6,0-7.3-2.2-9.1-5.2l-0.1-0.2l-4.6-9.2v5.6c0,5-4.1,9-9.1,9H16c-4.9,0-9-4.1-9-9V47
						c0-5,4.1-9.1,9-9.1h25.3c5,0,9.1,4.1,9.1,9.1v3.8l4-7.6l0.1-0.1c1.8-3.2,5.5-5.2,9.4-5.2h31.3c3.1,0,5.8,1.5,7.2,4
						c1.4,2.5,1.4,5.6-0.1,8.2l-0.1,0.2L76.2,92l28.1,46.1c1.7,2.5,1.9,5.6,0.6,8.2c-1.4,2.7-4.2,4.3-7.5,4.3H64.2z"/>
					<path class="st1" d="M95.3,44.9c1.1,0,1.6,0.7,1,1.7L67.9,91.9l30.5,49.9c0.7,1,0.1,1.7-1,1.7H64.2c-1,0-2.4-0.7-3-1.7
						l-17.7-35.8v35.5c0,1-0.9,2-2.1,2H16c-1,0-2-1-2-2V47c0-1.1,1-2.1,2-2.1h25.3c1.3,0,2.1,1,2.1,2.1v32l17.2-32.5
						c0.6-1,2-1.7,3.3-1.7H95.3 M95.3,30.9H63.9c-4.3,0-8.5,1.6-11.7,4.3c-2.9-2.7-6.7-4.3-10.9-4.3H16c-4.3,0-8.5,1.8-11.5,5
						C1.6,38.9,0,42.9,0,47v94.5c0,8.7,7.3,16,16,16h25.3c4.3,0,8.3-1.7,11.2-4.5c3.2,2.8,7.4,4.5,11.7,4.5h33.2
						c5.9,0,11.1-3.1,13.7-8.1c2.5-4.8,2.1-10.5-0.9-15.1L84.4,92l23.7-38l0.1-0.2l0.1-0.2c2.8-4.8,2.8-10.5,0.1-15.2
						C105.8,33.7,100.8,30.9,95.3,30.9L95.3,30.9z"/>
				</g>
				<g>
					<path class="st0" d="M176.5,152.7c-26.4,0-44.8-19.9-44.8-48.5c0-28.5,18.4-48.3,44.8-48.3c3.6,0,7.1,0.5,10.4,1.4V41.9
						c0-4.9,4.2-9,9.1-9h25.2c5,0,9.1,4.1,9.1,9v99.5c0,5-4.1,9.1-9.1,9.1h-16.2c-1.4,0-4.5-0.4-7-3.5
						C191.9,150.7,184.3,152.7,176.5,152.7z M182.6,94.5c-5.7,0-6.2,7.3-6.2,9.6c0,4.7,1.6,10.2,6.2,10.2c1.8,0,3.4-0.9,4.3-2.4v-15
						C186,95.5,184.4,94.5,182.6,94.5z"/>
					<path class="st1" d="M221.2,39.9c1.1,0,2.1,1,2.1,2v99.5c0,1.1-1,2.1-2.1,2.1h-16.2c-1,0-1.7-0.9-2.3-2.1l-2.1-5.1
						c-5.4,5.7-14.6,9.4-24.2,9.4c-22.6,0-37.8-16.6-37.8-41.5c0-24.7,15.2-41.3,37.8-41.3c6.7,0,13.2,2,17.4,5.4V41.9
						c0-1,1-2,2.1-2H221.2 M182.6,121.3c5,0,9.6-3.1,11.3-7.9v-18c-1.7-4.7-6.3-7.9-11.3-7.9c-7.9,0-13.2,6.6-13.2,16.6
						C169.5,114.4,174.8,121.3,182.6,121.3 M221.2,25.9h-25.2c-4.2,0-8.1,1.6-11.2,4.5c-3.2,3-5,7.2-5,11.5V49
						c-1.1-0.1-2.3-0.1-3.4-0.1c-14.9,0-28.3,5.7-37.7,15.9c-9.2,10.1-14.1,23.7-14.1,39.4c0,32.7,21.3,55.5,51.8,55.5
						c7.2,0,14.3-1.5,20.6-4.3c2.4,1.4,5.1,2.2,8,2.2h16.2c8.9,0,16.1-7.2,16.1-16.1V41.9c0-4.3-1.8-8.5-5-11.5
						C229.4,27.5,225.4,25.9,221.2,25.9L221.2,25.9z"/>
				</g>
				<g>
					<path class="st0" d="M316.8,150.6c-5,0-9.1-4.1-9.1-9v-0.3l-0.9,2.6c-1.6,4.3-6.4,6.7-10.1,6.7h-15.7c-3.7,0-8.5-2.3-10.1-6.7
						l-0.9-2.6v0.3c0,4.9-4.2,9-9.1,9h-26.5c-5,0-9-4-9-9V47c0-5,4-9.1,9-9.1h29.9c4.4,0,8.9,2.7,11,6.5l0.3,0.5l13.3,36.9
						l13.3-36.9l0.3-0.5c2.1-3.8,6.6-6.5,11-6.5h29.9c5,0,9,4.1,9,9.1v94.5c0,5-4,9-9,9H316.8z"/>
					<path class="st1" d="M343.2,44.9c1.1,0,2,1,2,2.1v94.5c0,1-0.9,2-2,2h-26.5c-1.1,0-2.1-1-2.1-2v-42l-14.4,41.9
						c-0.4,1.1-2.3,2.1-3.6,2.1h-15.7c-1.3,0-3.1-1-3.6-2.1l-14.4-41.9v42c0,1-1,2-2.1,2h-26.5c-1.1,0-2-1-2-2V47
						c0-1.1,0.9-2.1,2-2.1h29.9c1.9,0,4,1.3,4.9,2.9l19.7,54.6l19.7-54.6c0.9-1.6,3-2.9,4.9-2.9H343.2 M343.2,30.9h-29.9
						c-6.9,0-13.8,4.1-17.2,10.2l-0.5,0.9l-0.4,1l-6.6,18.2L282.2,43l-0.4-1l-0.5-0.9c-3.3-6.1-10.2-10.2-17.2-10.2h-29.9
						c-8.8,0-16,7.2-16,16.1v94.5c0,8.8,7.2,16,16,16h26.5c3.6,0,7-1.2,9.8-3.3c3.2,2.2,7,3.3,10.4,3.3h15.7c3.4,0,7.1-1.1,10.4-3.3
						c2.8,2.2,6.2,3.3,9.8,3.3h26.5c8.8,0,16-7.2,16-16V47C359.2,38.1,352,30.9,343.2,30.9L343.2,30.9z"/>
				</g>
				<g>
					<path class="st0" d="M439.5,150.6c-4.2,0-7.8-2.5-9.1-6.4l-1.9-4.1l-1.9,4.1c-1.3,3.8-4.9,6.4-9.1,6.4h-27.7
						c-3,0-5.7-1.5-7.2-4c-1.5-2.4-1.6-5.5-0.3-8.2l17.5-35l-18.4-33.5l-0.2-0.5c-1-2.7-0.7-5.6,0.9-7.9c1.6-2.2,4.2-3.6,6.9-3.6h27
						c2.1,0,6,0.7,8.7,5.4l0.1,0.2l3.7,7.5l3.7-7.5l0.1-0.2c2.7-4.7,6.6-5.4,8.7-5.4h27c2.8,0,5.4,1.3,6.9,3.6
						c1.6,2.3,1.9,5.2,0.9,7.9l-0.2,0.5l-18.4,33.5l17.5,35c1.3,2.7,1.2,5.7-0.3,8.2c-1.5,2.5-4.3,4-7.2,4H439.5z"/>
					<path class="st1" d="M467.9,64.9c1,0,1.7,0.9,1.3,2l-19.9,36.3l19.2,38.3c0.6,1.1-0.3,2-1.3,2h-27.7c-1.3,0-2.3-0.7-2.6-1.9
						l-8.4-18.4l-8.4,18.4c-0.3,1.1-1.3,1.9-2.6,1.9h-27.7c-1,0-1.9-0.9-1.3-2l19.2-38.3l-19.9-36.3c-0.4-1.1,0.3-2,1.3-2h27
						c1.3,0,2,0.9,2.6,1.9l9.9,20.2l9.9-20.2c0.6-1,1.3-1.9,2.6-1.9H467.9 M467.9,50.9h-27c-2.5,0-8,0.6-12.4,5.7
						c-4.4-5.1-10-5.7-12.4-5.7h-27c-5.1,0-9.8,2.5-12.7,6.6c-2.9,4.1-3.5,9.5-1.7,14.3l0.3,0.9l0.5,0.9l16.4,29.9l-15.9,31.8
						c-2.4,4.8-2.2,10.4,0.6,15c2.8,4.5,7.8,7.3,13.2,7.3h27.7c4.2,0,8.1-1.5,11-4.1c3,2.6,6.8,4.1,11,4.1h27.7
						c5.4,0,10.4-2.8,13.2-7.3c2.8-4.5,3-10.1,0.6-15l-15.9-31.8l16.4-29.9l0.5-0.9l0.3-0.9c1.8-4.8,1.2-10.2-1.7-14.3
						C477.7,53.4,473,50.9,467.9,50.9L467.9,50.9z"/>
				</g>
			</g>
			<g>
				<g>
					<path class="st0" d="M104.8,150.6c-5,0-9.1-4.1-9.1-9.1V66.9c0-4.9,4.2-9,9.1-9h3.4l-0.1-1.4c-8.3-4.8-13.3-12.6-13.3-21.4
						c0-14.3,13.8-25.9,30.8-25.9c17,0,30.8,11.6,30.8,25.9c0,11.4-8.8,21.1-20.9,24.5c2.3,1.7,3.8,4.3,3.8,7.2v74.5
						c0,5-4.1,9.1-9.1,9.1H104.8z"/>
				</g>
				<g>
					<path class="st1" d="M125.5,16.3c13.1,0,23.8,8.5,23.8,18.9c0,10.4-10.6,18.9-23.8,18.9c-0.9,0-1.7,0-2.6-0.1l-7.4,8.6
						L114.8,52c-7.7-3.1-13-9.5-13-16.8C101.8,24.7,112.4,16.3,125.5,16.3 M130,64.9c1.1,0,2.1,1,2.1,2v74.5c0,1.1-1,2.1-2.1,2.1
						h-25.2c-1.1,0-2.1-1-2.1-2.1V66.9c0-1,1-2,2.1-2H130 M125.5,2.3c-9.5,0-18.6,3-25.5,8.6c-7.8,6.2-12.3,15-12.3,24.3
						c0,7,2.6,13.7,7.1,19.2c-0.4,0.3-0.8,0.7-1.2,1c-3.2,3-5,7.2-5,11.5v74.5c0,8.9,7.2,16.1,16.1,16.1H130
						c8.9,0,16.1-7.2,16.1-16.1V66.9c0-1.3-0.2-2.6-0.5-3.9c1.9-1,3.7-2.2,5.4-3.6c7.8-6.2,12.3-15,12.3-24.3
						c0-9.3-4.5-18.1-12.3-24.3C144.1,5.3,135,2.3,125.5,2.3L125.5,2.3z"/>
				</g>
			</g>
			<g>
				<g>
					<path class="st0" d="M355,150.7c-5,0-9.1-4.1-9.1-9.1V67.1c0-4.9,4.2-9,9.1-9h2.1C344.3,55,334.8,45,334.8,33.2
						c0-14.3,13.8-25.9,30.8-25.9c17,0,30.8,11.6,30.8,25.9c0,8.7-5,16.6-13.3,21.4l-0.3,3.9c3.8,1.1,6.7,4.6,6.7,8.6v74.5
						c0,5-4.1,9.1-9.1,9.1H355z"/>
				</g>
				<g>
					<path class="st1" d="M365.5,14.3c13.1,0,23.8,8.5,23.8,18.9c0,7.4-5.3,13.7-13,16.8l-0.7,10.5l-7.4-8.6
						c-0.9,0.1-1.7,0.1-2.6,0.1c-13.1,0-23.8-8.5-23.8-18.9C341.8,22.7,352.4,14.3,365.5,14.3 M380.2,65.1c1.1,0,2.1,1,2.1,2v74.5
						c0,1.1-1,2.1-2.1,2.1H355c-1.1,0-2.1-1-2.1-2.1V67.1c0-1,1-2,2.1-2H380.2 M365.5,0.3c-9.5,0-18.6,3-25.5,8.6
						c-7.8,6.2-12.3,15-12.3,24.3c0,9.3,4.5,18.1,12.3,24.3c0.5,0.4,0.9,0.7,1.4,1.1c-1.6,2.5-2.5,5.5-2.5,8.5v74.5
						c0,8.9,7.2,16.1,16.1,16.1h25.2c8.9,0,16.1-7.2,16.1-16.1V67.1c0-3.9-1.5-7.7-4.1-10.6c6.9-6.1,11.1-14.4,11.1-23.3
						c0-9.3-4.5-18.1-12.3-24.3C384.1,3.3,375,0.3,365.5,0.3L365.5,0.3z"/>
				</g>
			</g>
		</g>
		<g>
			<path class="st2" d="M182.5,95.5c-4.8,0-5.1,6.6-5.1,8.6c0,0.9,0.1,9.2,5.1,9.2c1.3,0,3.2-0.7,3.2-1.7V97.2
				C185.7,96.2,183.8,95.5,182.5,95.5z"/>
			<path class="st2" d="M77.3,92l17.3,28.4V66.9c0-1.6,0.4-3.2,1.2-4.5L77.3,92z"/>
			<path class="st2" d="M106.8,57c-1.9-1-3.6-2.5-5.1-4l-5.1,8.2c1.9-2.6,4.9-4.3,8.3-4.3H106.8z"/>
			<polygon class="st2" points="390.7,88.5 390.7,119.8 398.9,103.4 			"/>
			<path class="st3" d="M94.9,143c-0.1,0-0.2-0.8-0.2-1.6v-5.7L67.9,91.9l28.3-45.3c0.1-0.2,0.2-0.4,0.2-0.5c-0.2-0.4-0.3-0.7-0.5-1
				C95.8,45,95.5,45,95.3,45H63.9c-1.3,0-2.6,0.7-3.2,1.7L43.7,79.1V47c0-1.1-1-2-2.3-2H16c-1,0-1.4,0.9-1.4,2v94.5
				c0,1,0.4,1.4,1.4,1.4h25.3c1.3,0,2.3-0.4,2.3-1.4v-35.5l17.6,35.5c0.6,1,1.9,1.4,2.9,1.4H94.9z"/>
			<path class="st4" d="M221.2,143c1.1,0,2.4-0.4,2.4-1.6V41.9c0-1-1.3-1.9-2.4-1.9h-25.2c-1.1,0-2.4,0.9-2.4,1.9v26.5
				c-4-3.4-10.3-5.4-17.1-5.4c-18.5,0-31.9,11.2-35.9,28.9v25c4,17.8,17.5,28.9,36.1,28.9c9.6,0,18.6-3.7,24-9.4l2.1,4.9
				c0.6,1.3,1.2,1.9,2.2,1.9H221.2z M193.7,113.4c-1,4.7-6.2,7.9-11.2,7.9c-7.9,0-13.1-6.9-13.1-17.2c0-10,5.2-16.6,13.1-16.6
				c5,0,10.2,3.1,11.2,7.9V113.4z"/>
			<path class="st5" d="M182.5,87.5c-7.9,0-13.1,6.6-13.1,16.6c0,10.3,5.2,17.2,13.1,17.2c5,0,10.2-3.1,11.2-7.9v-18
				C192.7,90.7,187.5,87.5,182.5,87.5z M185.7,111.6c0,1-1.9,1.7-3.2,1.7c-5,0-5.1-8.2-5.1-9.2c0-2,0.3-8.6,5.1-8.6
				c1.3,0,3.2,0.7,3.2,1.7V111.6z"/>
			<path class="st6" d="M343.2,143c0.8,0,1.3-0.2,1.6-0.7c0-0.3-0.2-0.4-0.2-0.7V67.1c0-0.8,1-1.7,1-2.5V53.8c-1-0.3-1.2-0.6-1.7-1
				c-2.8-2.3-5.4-4.8-7-7.8h-23.6c-1.9,0-4,1.2-4.9,2.8l-19.7,54.6L269,47.8c-0.9-1.6-3-2.8-4.9-2.8h-29.9c-1.1,0-1.6,0.9-1.6,2
				v94.5c0,1,0.4,1.4,1.6,1.4h26.5c1.1,0,2-0.4,2-1.4v-42l14.5,41.6c0.4,1.1,2.4,1.9,3.7,1.9h15.7c1.3,0,3.2-0.7,3.6-1.9l14.5-41.6
				v42c0,1,0.9,1.4,2.1,1.4H343.2z"/>
			<path class="st7" d="M449.3,103.2L469.2,67c0.4-1.1-0.3-2-1.3-2h-27c-1.3,0-2,0.8-2.6,1.8L428.4,87l-9.9-20.1
				c-0.6-1-1.3-1.8-2.6-1.8h-25.9c0.2,0,0.6,1.3,0.6,2.1v4.7l17.2,31.5l-17.2,34.4v3.9c0,0.7-0.4,1.4-0.5,1.4h27.3
				c1.3,0,2.3-0.4,2.6-1.6l8.4-18.3l8.4,18.2c0.3,1.1,1.3,1.6,2.6,1.6h27.7c1,0,1.9-0.6,1.3-1.7L449.3,103.2z"/>
			<path class="st5" d="M476.5,70.3l0.2-0.5c1.1-3,0.7-6.2-1-8.7c-1.7-2.5-4.6-4-7.8-4h-27c-2.3,0-6.6,0.7-9.5,5.8l-0.1,0.2
				l-0.1,0.2l-2.7,5.5l-2.7-5.5l-0.1-0.2l-0.1-0.2c-2.9-5.1-7.2-5.8-9.5-5.8h-27c-1.6,0-3.1,0.4-4.5,1.1c-0.2-0.1-0.5-0.2-0.7-0.3
				l0.2-2.6c8.4-5,13.4-13,13.4-22c0-7.4-3.6-14.6-10-19.6c-5.9-4.7-13.6-7.3-21.8-7.3s-15.9,2.6-21.8,7.3c-6.3,5-10,12.2-10,19.7
				c0,1.3,0.1,2.8,0.3,3.8h-20.8c-4.7,0-9.6,2.8-11.9,7l-0.3,0.5l-0.2,0.6l-12.2,33.8L276.5,45l-0.2-0.6L276,44
				c-2.3-4.1-7.1-7-11.9-7h-29.9c-1.4,0-2.7,0.3-3.9,0.8c-1.6-3.4-5.2-5.8-9.2-5.8h-25.2c-5.5,0-10.4,4.5-10.4,9.9V56
				c-3-0.7-6.1-1.1-9.3-1.1c-13.2,0-24.7,5-32.9,14c-1.1,1.2-1.7,2.5-2.7,3.8v-5.8c0-2.6-1.3-5-3-6.8c3.6-1.2,6.9-3,9.8-5.4
				c6.3-5,9.9-12.2,9.9-19.6s-3.7-14.6-10-19.6c-5.9-4.7-13.6-7.3-21.8-7.3c-8.1,0-15.9,2.6-21.8,7.3c-6.3,5-10,12.2-10,19.7
				c0,0.6,0,0.8,0.1,1.8H63.9c-4.2,0-8.2,2.2-10.2,5.7l-0.1,0.1l-0.1,0.1l-2.1,4c-0.1-5.5-4.6-9.9-10.1-9.9H16
				c-5.4,0-9.4,4.5-9.4,10v94.5c0,5.4,3.9,9.4,9.4,9.4h25.3c5.6,0,10.3-3.9,10.3-9.4v-1.3l2.5,4.9l0-0.1h0.1c2,4,6,6,10,6h33.2
				c1.3,0,2.6-0.3,3.7-0.7c1.2,0.5,2.4,0.7,3.7,0.7H130c5.6,0,10.7-4,10.7-9.6v-5.5c1,1.3,1.7,2.6,2.8,3.8c8.2,9,19.9,14,33.1,14
				c7.7,0,15.1-2.2,21.3-5.7c2.6,2.8,5.7,2.9,7.2,2.9h16.2c2.5,0,4.8-0.9,6.5-2.4c1.7,1.5,4,2.4,6.5,2.4h26.5c4.2,0,8-2.7,9.5-6.5
				c2.1,4.2,6.9,6.5,10.7,6.5h15.7c3.8,0,8.6-2.3,10.7-6.5c1.5,3.7,5.2,6.5,9.5,6.5h26.5c2.2,0,4.2-0.3,5.8-1.4
				c1.7,1.3,3.8,2.4,6,2.4h25.2c1.8,0,3.5-0.9,4.9-1.7c1.4,0.7,2.9,0.7,4.5,0.7h27.7c4.7,0,8.6-2.5,10.1-6.7l1-1.9l1,1.9
				c1.5,4.2,5.4,6.8,10.1,6.8h27.7c3.3,0,6.4-1.4,8.1-4.2c1.7-2.7,1.8-6,0.3-9l-17.3-34.5l17.9-32.6L476.5,70.3z M467.2,143h-27.7
				c-1.3,0-2.3-0.4-2.6-1.6l-8.4-18.3l-8.4,18.2c-0.3,1.1-1.3,1.6-2.6,1.6h-27.3c0.1,0,0.5-0.7,0.5-1.4v-3.9l17.2-34.4l-17.2-31.5
				v-4.7c0-0.7-0.4-2.1-0.6-2.1H416c1.3,0,2,0.8,2.6,1.8l9.9,20.1l9.9-20.1c0.6-1,1.3-1.8,2.6-1.8h27c1,0,1.7,0.8,1.3,2l-19.9,36.3
				l19.2,38C469.1,142.4,468.2,143,467.2,143z M314.7,141.6v-42l-14.5,41.6c-0.4,1.1-2.3,1.9-3.6,1.9h-15.7c-1.3,0-3.2-0.7-3.7-1.9
				l-14.5-41.6v42c0,1-0.8,1.4-2,1.4h-26.5c-1.1,0-1.6-0.4-1.6-1.4V47c0-1.1,0.4-2,1.6-2h29.9c1.9,0,4,1.2,4.9,2.8l19.7,54.6
				l19.7-54.6c0.9-1.6,3-2.8,4.9-2.8H337c1.7,3,4.2,5.6,7,7.8c0.5,0.4,0.7,0.7,1.7,1v10.8c0,0.8-1,1.6-1,2.5v74.5
				c0,0.3,0.1,0.4,0.2,0.7c-0.3,0.6-0.9,0.7-1.6,0.7h-26.5C315.6,143,314.7,142.6,314.7,141.6z M341.8,33.2
				c0-10.4,10.6-18.9,23.8-18.9c13.1,0,23.8,8.5,23.8,18.9c0,7.4-5.3,13.7-13,16.8l-0.7,10.5l-7.4-8.6c-0.9,0.1-1.7,0.1-2.6,0.1
				C352.4,52,341.8,43.6,341.8,33.2z M390.7,88.5l8.2,15l-8.2,16.4V88.5z M352.7,141.6V67.1c0-1,1.2-2.1,2.4-2.1h25.2
				c1.1,0,2.5,1.1,2.5,2.1v74.5c0,1.1-1.3,2.4-2.5,2.4H355C353.9,144,352.7,142.7,352.7,141.6z M202.8,141.1l-2.1-5
				c-5.4,5.7-14.3,9.5-23.9,9.5c-18.5,0-32.1-11.1-36.1-28.9v-25c4-17.7,17.4-28.9,35.9-28.9c6.7,0,13.1,2,17.1,5.4V41.9
				c0-1,1.3-1.9,2.4-1.9h25.2c1.1,0,2.4,0.9,2.4,1.9v99.5c0,1.1-1.3,1.6-2.4,1.6h-16.2C204.1,143,203.4,142.4,202.8,141.1z M130,143
				h-25.2c-1.1,0-2.2-0.4-2.2-1.6V66.9c0-1,1-1.9,2.2-1.9H130c1.1,0,2.7,0.9,2.7,1.9v74.5C132.7,142.6,131.1,143,130,143z
				 M61.3,141.6l-17.6-35.5v35.5c0,1-1,1.4-2.3,1.4H16c-1,0-1.4-0.4-1.4-1.4V47c0-1.1,0.4-2,1.4-2h25.3c1.3,0,2.3,0.9,2.3,2v32
				l17.1-32.4c0.6-1,1.9-1.7,3.2-1.7h31.3c0.3,0,0.5,0,0.7,0.1c0.2,0.4,0.3,0.7,0.5,1.1c0,0.2-0.1,0.3-0.2,0.5L67.9,92l26.7,43.8
				v5.7c0,0.7,0.1,1.6,0.2,1.6H64.2C63.2,143,61.9,142.6,61.3,141.6z M149.3,35.2c0,10.4-10.6,18.9-23.8,18.9c-0.9,0-1.7,0-2.6-0.1
				l-7.4,8.6L114.8,52c-7.7-3.1-13-9.5-13-16.8c0-10.4,10.6-18.9,23.8-18.9C138.7,16.3,149.3,24.7,149.3,35.2z M94.7,120.4L77.3,92
				l18.5-29.6c-0.7,1.4-1.2,2.9-1.2,4.5V120.4z M96.6,61.2l5.1-8.2c1.5,1.4,3.2,2.9,5.1,3.9h-2C101.5,57,98.4,58.7,96.6,61.2z"/>
			<path class="st8" d="M101.8,35.2c0,7.4,5.3,13.7,13,16.8l0.7,10.5l7.4-8.6c0.9,0.1,1.7,0.1,2.6,0.1c13.1,0,23.8-8.5,23.8-18.9
				s-10.6-18.9-23.8-18.9C112.4,16.3,101.8,24.7,101.8,35.2z"/>
			<path class="st8" d="M132.7,66.9c0-1-1.5-1.9-2.7-1.9h-25.2c-1.1,0-2.2,0.9-2.2,1.9v74.5c0,1.1,1,1.6,2.2,1.6H130
				c1.1,0,2.7-0.4,2.7-1.6V66.9z"/>
			<path class="st0" d="M382.7,141.6V67.1c0-1-1.3-2.1-2.5-2.1H355c-1.1,0-2.4,1.1-2.4,2.1v74.5c0,1.1,1.2,2.4,2.4,2.4h25.2
				C381.4,144,382.7,142.7,382.7,141.6z"/>
			<path class="st0" d="M365.5,52c0.9,0,1.7,0,2.6-0.1l7.4,8.6l0.7-10.5c7.7-3.1,13-9.5,13-16.8c0-10.4-10.6-18.9-23.8-18.9
				c-13.1,0-23.8,8.5-23.8,18.9C341.8,43.6,352.4,52,365.5,52z"/>
		</g>
		<g>
			<g>
				<g>
					<path class="st3" d="M98.4,141.9c0.7,1,0.1,1.7-1,1.7H64.2c-1,0-2.4-0.7-3-1.7l-17.7-35.8v35.5c0,1-0.9,2-2.1,2H16
						c-1,0-2-1-2-2V47c0-1.1,1-2.1,2-2.1h25.3c1.3,0,2.1,1,2.1,2.1v32l17.2-32.5c0.6-1,2-1.7,3.3-1.7h31.3c1.1,0,1.6,0.7,1,1.7
						L67.9,91.9L98.4,141.9z"/>
				</g>
				<g>
					<path class="st4" d="M221.2,39.9c1.1,0,2.1,1,2.1,2v99.5c0,1.1-1,2.1-2.1,2.1h-16.2c-1,0-1.7-0.9-2.3-2.1l-2.1-5.1
						c-5.4,5.7-14.6,9.4-24.2,9.4c-22.6,0-37.8-16.6-37.8-41.5c0-24.7,15.2-41.3,37.8-41.3c6.7,0,13.2,2,17.4,5.4V41.9
						c0-1,1-2,2.1-2H221.2z M193.9,95.4c-1.7-4.7-6.3-7.9-11.3-7.9c-7.9,0-13.2,6.6-13.2,16.6c0,10.3,5.3,17.2,13.2,17.2
						c5,0,9.6-3.1,11.3-7.9V95.4z"/>
				</g>
				<g>
					<path class="st6" d="M343.2,44.9c1.1,0,2,1,2,2.1v94.5c0,1-0.9,2-2,2h-26.5c-1.1,0-2.1-1-2.1-2v-42l-14.4,41.9
						c-0.4,1.1-2.3,2.1-3.6,2.1h-15.7c-1.3,0-3.1-1-3.6-2.1l-14.4-41.9v42c0,1-1,2-2.1,2h-26.5c-1.1,0-2-1-2-2V47
						c0-1.1,0.9-2.1,2-2.1h29.9c1.9,0,4,1.3,4.9,2.9l19.7,54.6l19.7-54.6c0.9-1.6,3-2.9,4.9-2.9H343.2z"/>
				</g>
				<g>
					<path class="st9" d="M467.9,64.9c1,0,1.7,0.9,1.3,2l-19.9,36.3l19.2,38.3c0.6,1.1-0.3,2-1.3,2h-27.7c-1.3,0-2.3-0.7-2.6-1.9
						l-8.4-18.4l-8.4,18.4c-0.3,1.1-1.3,1.9-2.6,1.9h-27.7c-1,0-1.9-0.9-1.3-2l19.2-38.3l-19.9-36.3c-0.4-1.1,0.3-2,1.3-2h27
						c1.3,0,2,0.9,2.6,1.9l9.9,20.2l9.9-20.2c0.6-1,1.3-1.9,2.6-1.9H467.9z"/>
				</g>
			</g>
			<g>
				<g>
					<path class="st8" d="M130,64.9h-25.2c-1.1,0-2.1,1-2.1,2v74.5c0,1.1,1,2.1,2.1,2.1H130c1.1,0,2.1-1,2.1-2.1V66.9
						C132.2,65.9,131.1,64.9,130,64.9z M125.5,16.3c-13.1,0-23.8,8.5-23.8,18.9c0,7.4,5.3,13.7,13,16.8l0.7,10.5l7.4-8.6
						c0.9,0.1,1.7,0.1,2.6,0.1c13.1,0,23.8-8.5,23.8-18.9S138.7,16.3,125.5,16.3z"/>
				</g>
			</g>
			<g>
				<g>
					<path class="st0" d="M380.2,65.1H355c-1.1,0-2.1,1-2.1,2v74.5c0,1.1,1,2.1,2.1,2.1h25.2c1.1,0,2.1-1,2.1-2.1V67.1
						C382.4,66.1,381.4,65.1,380.2,65.1z M365.5,14.3c-13.1,0-23.8,8.5-23.8,18.9S352.4,52,365.5,52c0.9,0,1.7,0,2.6-0.1l7.4,8.6
						l0.7-10.5c7.7-3.1,13-9.5,13-16.8C389.3,22.7,378.7,14.3,365.5,14.3z"/>
				</g>
			</g>
		</g>
		<g>
			<path class="st5" d="M119.5,33c1.2,0,2.1,1,2.1,2.2c0,1.2-0.9,2.2-2.1,2.2s-2.1-1-2.1-2.2C117.4,34,118.3,33,119.5,33z"/>
			<path class="st5" d="M126.5,33c1.2,0,2.1,1,2.1,2.2c0,1.2-0.9,2.2-2.1,2.2s-2.1-1-2.1-2.2C124.4,34,125.3,33,126.5,33z"/>
			<path class="st5" d="M133.4,33c1.2,0,2.1,1,2.1,2.2c0,1.2-0.9,2.2-2.1,2.2s-2.1-1-2.1-2.2C131.3,34,132.2,33,133.4,33z"/>
		</g>
		<g>
			<path class="st5" d="M358.5,31c1.2,0,2.1,1,2.1,2.2c0,1.2-0.9,2.2-2.1,2.2s-2.1-1-2.1-2.2C356.4,32,357.3,31,358.5,31z"/>
			<path class="st5" d="M365.5,31c1.2,0,2.1,1,2.1,2.2c0,1.2-0.9,2.2-2.1,2.2s-2.1-1-2.1-2.2C363.4,32,364.3,31,365.5,31z"/>
			<path class="st5" d="M372.4,31c1.2,0,2.1,1,2.1,2.2c0,1.2-0.9,2.2-2.1,2.2s-2.1-1-2.1-2.2C370.3,32,371.2,31,372.4,31z"/>
		</g>
		<polygon class="st5" points="104.4,48.5 109.8,60.4 88.4,62.9 		"/>
	</g>
	<g>
		<path class="st1" d="M490.6,44.9h-3V33.1h-3.9v-2.5h10.8v2.5h-3.9V44.9z"/>
		<path class="st1" d="M502.7,44.9l-3.4-11.2h-0.1c0.1,2.3,0.2,3.8,0.2,4.6v6.6h-2.7V30.6h4.1l3.4,10.9h0.1l3.6-10.9h4.1v14.3h-2.8
			v-6.8c0-0.3,0-0.7,0-1.1s0.1-1.5,0.1-3.3h-0.1l-3.7,11.2H502.7z"/>
	</g>
</g>
</svg>
